<?xml version="1.0" standalone="no"?>
<!DOCTYPE svg PUBLIC "-//W3C//DTD SVG 20010904//EN"
 "http://www.w3.org/TR/2001/REC-SVG-20010904/DTD/svg10.dtd">
<svg version="1.0" xmlns="http://www.w3.org/2000/svg"
 width="512.000000pt" height="512.000000pt" viewBox="0 0 512.000000 512.000000"
 preserveAspectRatio="xMidYMid meet">
<metadata>
Created by potrace 1.11, written by Peter Selinger 2001-2013
</metadata>
<g transform="translate(0.000000,512.000000) scale(0.100000,-0.100000)"
fill="#000000" stroke="none">
<path d="M2420 4460 c-144 -16 -243 -31 -259 -39 -9 -5 -39 -14 -66 -19 -54
-11 -75 -18 -210 -70 -150 -58 -316 -154 -430 -246 -184 -150 -304 -284 -422
-470 -35 -56 -143 -267 -143 -280 0 -4 -6 -22 -14 -39 -56 -128 -116 -443
-116 -615 0 -86 27 -325 47 -407 39 -171 152 -448 226 -556 50 -73 100 -144
106 -149 3 -3 29 -32 56 -65 124 -148 272 -271 470 -392 11 -7 58 -31 105 -54
47 -22 93 -45 102 -50 76 -40 324 -104 468 -120 52 -6 183 -9 290 -6 190 5
236 11 385 53 28 7 66 18 85 23 19 5 60 19 90 31 30 12 68 26 84 32 61 23 207
105 305 172 415 284 712 781 761 1275 36 369 -24 700 -185 1016 -70 137 -101
185 -200 310 -210 264 -513 475 -825 574 -175 55 -202 62 -279 72 -229 30
-303 33 -431 19z m325 -115 c178 -20 364 -71 515 -142 41 -19 84 -39 95 -45
43 -19 217 -134 250 -165 11 -10 46 -40 78 -66 67 -57 218 -229 269 -307 134
-206 208 -383 265 -635 26 -117 26 -526 0 -635 -59 -239 -113 -378 -208 -538
-183 -306 -463 -554 -774 -686 -135 -57 -136 -57 -195 -73 -209 -54 -280 -63
-490 -63 -142 0 -223 4 -260 14 -30 7 -77 17 -104 21 -27 3 -58 10 -70 15 -11
4 -52 18 -91 30 -147 47 -295 122 -454 231 -69 47 -274 244 -334 319 -98 125
-209 318 -252 440 -68 195 -92 304 -105 485 -20 269 7 454 106 740 81 231 303
532 519 702 129 102 255 178 380 229 33 14 69 29 80 34 37 17 144 50 163 50
10 0 38 7 63 15 52 17 254 42 354 44 39 1 129 -6 200 -14z"/>
<path d="M2693 2883 c15 -2 39 -2 55 0 15 2 2 4 -28 4 -30 0 -43 -2 -27 -4z"/>
<path d="M1806 2838 c-3 -13 -6 -77 -6 -143 0 -125 9 -157 37 -134 9 9 13 45
13 139 0 71 -3 135 -6 144 -9 23 -31 19 -38 -6z"/>
<path d="M2070 2841 c-5 -11 -10 -76 -10 -144 0 -105 3 -126 16 -131 29 -11
31 -6 36 72 6 112 14 117 57 31 47 -96 67 -101 105 -25 15 30 36 62 47 72 19
17 19 15 19 -57 0 -81 9 -105 34 -96 14 6 16 25 14 149 l-3 143 -27 3 c-21 3
-31 -2 -38 -20 -6 -13 -17 -34 -25 -48 -8 -14 -24 -47 -35 -73 -21 -47 -22
-48 -41 -31 -10 9 -33 48 -51 86 -39 85 -75 111 -98 69z"/>
<path d="M3092 2852 c-9 -7 -12 -43 -10 -148 l3 -139 25 0 c22 0 25 5 28 38 2
27 10 42 29 54 25 16 26 16 45 -8 75 -93 79 -97 98 -92 29 8 25 21 -25 87 -25
33 -45 69 -45 81 0 11 15 36 33 55 42 44 52 69 31 77 -11 4 -36 -15 -80 -61
-35 -37 -68 -65 -74 -61 -5 3 -10 23 -10 43 0 72 -15 94 -48 74z"/>
<path d="M2541 2744 c0 -11 3 -14 6 -6 3 7 2 16 -1 19 -3 4 -6 -2 -5 -13z"/>
<path d="M2542 2650 c0 -14 2 -19 5 -12 2 6 2 18 0 25 -3 6 -5 1 -5 -13z"/>
<path d="M2570 2580 c0 -5 5 -10 11 -10 5 0 7 5 4 10 -3 6 -8 10 -11 10 -2 0
-4 -4 -4 -10z"/>
<path d="M2610 2546 c0 -2 9 -6 20 -9 11 -3 20 -1 20 4 0 5 -9 9 -20 9 -11 0
-20 -2 -20 -4z"/>
</g>
</svg>
